<svg width="130" height="104" viewBox="0 0 130 104" fill="none" xmlns="http://www.w3.org/2000/svg">
<g filter="url(#filter0_d_3_89)">
<line x1="5.68299" y1="38.4948" x2="37.683" y2="10.4948" stroke="#0446EF" stroke-width="4"/>
<line x1="31.2473" y1="6.43655" x2="71.1075" y2="38.2353" stroke="#0446EF" stroke-width="4"/>
<line x1="117.749" y1="12.7148" x2="74.0292" y2="38.9551" stroke="#0446EF" stroke-width="4"/>
<ellipse cx="39" cy="8.5" rx="9" ry="8.5" fill="#0446EF"/>
<ellipse cx="73" cy="37.5" rx="9" ry="8.5" fill="#0446EF"/>
<ellipse cx="117" cy="11.5" rx="9" ry="8.5" fill="#0446EF"/>
</g>
<path d="M35.3236 63.906V93.05H33.6087V71.3183L29.2743 93.05H28.0682L23.7149 71.2762V93.05H22V63.906H23.8468L28.6712 87.9961L33.4956 63.906H35.3236Z" fill="#0446EF"/>
<path d="M42.736 93.429C41.7686 93.429 40.8892 92.9376 40.0977 91.9549C39.3188 90.9723 38.7031 89.5824 38.2509 87.7855C37.8111 85.9605 37.5913 83.8547 37.5913 81.4682C37.5913 79.1097 37.8174 77.032 38.2697 75.2351C38.7346 73.4101 39.3627 72.0202 40.1542 71.0656C40.9457 70.0829 41.8315 69.5916 42.8114 69.5916C43.7914 69.5916 44.6771 70.0829 45.4686 71.0656C46.2601 72.0202 46.882 73.396 47.3343 75.1929C47.7992 76.9899 48.0316 79.0816 48.0316 81.4682C48.0316 83.8547 47.7929 85.9605 47.3155 87.7855C46.8506 89.5824 46.2161 90.9723 45.4121 91.9549C44.608 92.9376 43.716 93.429 42.736 93.429ZM42.736 90.0597C43.3517 90.0597 43.9296 89.7369 44.4698 89.0911C45.01 88.4453 45.4435 87.4767 45.7701 86.1851C46.1094 84.8936 46.279 83.3213 46.279 81.4682C46.279 79.6151 46.1156 78.0428 45.789 76.7512C45.4623 75.4597 45.0352 74.5051 44.5075 73.8874C43.9798 73.2416 43.4082 72.9187 42.7926 72.9187C42.1644 72.9187 41.5865 73.2416 41.0588 73.8874C40.5437 74.5051 40.1291 75.4597 39.815 76.7512C39.5009 78.0428 39.3439 79.6151 39.3439 81.4682C39.3439 83.3493 39.4946 84.9357 39.7962 86.2272C40.1103 87.5188 40.5249 88.4874 41.04 89.1332C41.5551 89.7509 42.1204 90.0597 42.736 90.0597Z" fill="#0446EF"/>
<path d="M54.1308 89.5122L57.3345 69.9706H59.1625L55.1108 93.05H53.1132L49.0614 69.9706H50.9083L54.1308 89.5122Z" fill="#0446EF"/>
<path d="M61.7358 66.2223C61.4092 66.2223 61.1328 65.9696 60.9066 65.4643C60.6805 64.9589 60.5674 64.3412 60.5674 63.6112C60.5674 62.8812 60.6805 62.2635 60.9066 61.7581C61.1328 61.2527 61.4092 61 61.7358 61C62.0499 61 62.3137 61.2527 62.5273 61.7581C62.7535 62.2635 62.8665 62.8812 62.8665 63.6112C62.8665 64.3412 62.7535 64.9589 62.5273 65.4643C62.3137 65.9696 62.0499 66.2223 61.7358 66.2223ZM62.565 69.9706V93.05H60.8501V69.9706H62.565Z" fill="#0446EF"/>
<path d="M74.9105 80.6259C74.9105 81.3559 74.8916 82.128 74.8539 82.9422H66.5997C66.6625 85.2165 67.008 86.9993 67.6362 88.2909C68.2769 89.5544 69.0496 90.1861 69.9541 90.1861C70.6954 90.1861 71.311 89.8071 71.801 89.049C72.3035 88.2628 72.6553 87.224 72.8563 85.9324H74.7032C74.4268 88.1505 73.874 89.9615 73.0448 91.3653C72.2156 92.7411 71.1854 93.429 69.9541 93.429C68.9742 93.429 68.0947 92.9376 67.3158 91.9549C66.5494 90.9723 65.9464 89.5824 65.5066 87.7855C65.0669 85.9605 64.8471 83.8547 64.8471 81.4682C64.8471 79.0816 65.0606 76.9899 65.4878 75.1929C65.915 73.396 66.5117 72.0202 67.2781 71.0656C68.057 70.0829 68.9491 69.5916 69.9541 69.5916C70.9341 69.5916 71.801 70.0689 72.5548 71.0235C73.3086 71.9781 73.8865 73.2977 74.2886 74.9824C74.7032 76.6389 74.9105 78.5201 74.9105 80.6259ZM73.139 79.8257C73.139 78.3657 72.9945 77.1162 72.7056 76.0774C72.4166 75.0104 72.0208 74.2103 71.5183 73.6768C71.0283 73.1152 70.4818 72.8345 69.8788 72.8345C69.0119 72.8345 68.2706 73.4522 67.655 74.6876C67.052 75.923 66.7065 77.6357 66.6185 79.8257H73.139Z" fill="#0446EF"/>
<path d="M78.889 74.2243C79.2282 72.9047 79.7308 71.8097 80.3967 70.9393C81.0751 70.0408 81.8603 69.5916 82.7523 69.5916C83.6695 69.5916 84.4987 70.0829 85.2399 71.0656C85.9937 72.0483 86.5842 73.4381 87.0114 75.2351C87.4385 77.0039 87.6521 79.0676 87.6521 81.4261C87.6521 83.7564 87.4385 85.8342 87.0114 87.6592C86.5842 89.4842 85.9937 90.9021 85.2399 91.9128C84.4987 92.9236 83.6695 93.429 82.7523 93.429C81.8729 93.429 81.0939 92.9938 80.4155 92.1234C79.7496 91.2249 79.2408 90.1159 78.889 88.7963V104H77.1741V69.9706H78.889V74.2243ZM85.8995 81.4261C85.8995 79.6853 85.7424 78.1691 85.4284 76.8776C85.1143 75.586 84.6871 74.6033 84.1469 73.9295C83.6192 73.2556 83.035 72.9187 82.3943 72.9187C81.7661 72.9187 81.1819 73.2697 80.6416 73.9716C80.114 74.6454 79.6868 75.6422 79.3602 76.9618C79.0461 78.2533 78.889 79.7555 78.889 81.4682C78.889 83.2089 79.0461 84.7391 79.3602 86.0588C79.6868 87.3503 80.114 88.347 80.6416 89.049C81.1819 89.7228 81.7661 90.0597 82.3943 90.0597C83.035 90.0597 83.6192 89.7228 84.1469 89.049C84.6871 88.347 85.1143 87.3503 85.4284 86.0588C85.7424 84.7391 85.8995 83.1949 85.8995 81.4261Z" fill="#0446EF"/>
<path d="M90.7952 66.2223C90.4685 66.2223 90.1921 65.9696 89.966 65.4643C89.7398 64.9589 89.6268 64.3412 89.6268 63.6112C89.6268 62.8812 89.7398 62.2635 89.966 61.7581C90.1921 61.2527 90.4685 61 90.7952 61C91.1092 61 91.3731 61.2527 91.5867 61.7581C91.8128 62.2635 91.9259 62.8812 91.9259 63.6112C91.9259 64.3412 91.8128 64.9589 91.5867 65.4643C91.3731 65.9696 91.1092 66.2223 90.7952 66.2223ZM91.6244 69.9706V93.05H89.9094V69.9706H91.6244Z" fill="#0446EF"/>
<path d="M96.2621 73.7189C96.5636 72.3993 96.9908 71.3745 97.5436 70.6445C98.1089 69.9145 98.7936 69.5495 99.5977 69.5495V73.5083H99.1454C97.2232 73.5083 96.2621 75.8387 96.2621 80.4995V93.05H94.5471V69.9706H96.2621V73.7189Z" fill="#0446EF"/>
<path d="M111 80.6259C111 81.3559 110.981 82.128 110.943 82.9422H102.689C102.752 85.2165 103.098 86.9993 103.726 88.2909C104.366 89.5544 105.139 90.1861 106.044 90.1861C106.785 90.1861 107.401 89.8071 107.891 89.049C108.393 88.2628 108.745 87.224 108.946 85.9324H110.793C110.516 88.1505 109.964 89.9615 109.134 91.3653C108.305 92.7411 107.275 93.429 106.044 93.429C105.064 93.429 104.184 92.9376 103.405 91.9549C102.639 90.9723 102.036 89.5824 101.596 87.7855C101.156 85.9605 100.937 83.8547 100.937 81.4682C100.937 79.0816 101.15 76.9899 101.577 75.1929C102.004 73.396 102.601 72.0202 103.368 71.0656C104.147 70.0829 105.039 69.5916 106.044 69.5916C107.024 69.5916 107.891 70.0689 108.644 71.0235C109.398 71.9781 109.976 73.2977 110.378 74.9824C110.793 76.6389 111 78.5201 111 80.6259ZM109.229 79.8257C109.229 78.3657 109.084 77.1162 108.795 76.0774C108.506 75.0104 108.11 74.2103 107.608 73.6768C107.118 73.1152 106.571 72.8345 105.968 72.8345C105.101 72.8345 104.36 73.4522 103.745 74.6876C103.141 75.923 102.796 77.6357 102.708 79.8257H109.229Z" fill="#0446EF"/>
<defs>
<filter id="filter0_d_3_89" x="0.365967" y="0" width="129.634" height="54" filterUnits="userSpaceOnUse" color-interpolation-filters="sRGB">
<feFlood flood-opacity="0" result="BackgroundImageFix"/>
<feColorMatrix in="SourceAlpha" type="matrix" values="0 0 0 0 0 0 0 0 0 0 0 0 0 0 0 0 0 0 127 0" result="hardAlpha"/>
<feOffset dy="4"/>
<feGaussianBlur stdDeviation="2"/>
<feComposite in2="hardAlpha" operator="out"/>
<feColorMatrix type="matrix" values="0 0 0 0 0 0 0 0 0 0 0 0 0 0 0 0 0 0 0.25 0"/>
<feBlend mode="normal" in2="BackgroundImageFix" result="effect1_dropShadow_3_89"/>
<feBlend mode="normal" in="SourceGraphic" in2="effect1_dropShadow_3_89" result="shape"/>
</filter>
</defs>
</svg>
